<mxfile host="app.diagrams.net" agent="Mozilla/5.0 (Windows NT 10.0; Win64; x64; rv:133.0) Gecko/20100101 Firefox/133.0" version="24.9.2">
  <diagram name="Seite-1" id="5usnsu9xuodjzMrWUtB1">
    <mxGraphModel dx="1434" dy="1951" grid="1" gridSize="10" guides="1" tooltips="1" connect="1" arrows="1" fold="1" page="1" pageScale="1" pageWidth="827" pageHeight="1169" math="0" shadow="0">
      <root>
        <mxCell id="0" />
        <mxCell id="1" parent="0" />
        <mxCell id="mjI52c1CxNeufO2wocmV-184" value="" style="rounded=1;whiteSpace=wrap;html=1;" vertex="1" parent="1">
          <mxGeometry x="50" y="-150" width="910" height="500" as="geometry" />
        </mxCell>
        <mxCell id="mjI52c1CxNeufO2wocmV-179" value="&lt;div&gt;&lt;br&gt;&lt;/div&gt;&lt;div&gt;&lt;br&gt;&lt;/div&gt;&lt;div style=&quot;line-height: 90%;&quot;&gt;&lt;i&gt;Encryption&lt;/i&gt;:&lt;br&gt;&lt;/div&gt;&lt;div style=&quot;line-height: 90%;&quot;&gt;&lt;ul&gt;&lt;li&gt;XOR data multiple times (length of KEY)&lt;/li&gt;&lt;li&gt;at each iteration&lt;/li&gt;&lt;ul&gt;&lt;li&gt;skip the first i bytes of data&lt;/li&gt;&lt;li&gt;xor every i_th byte of data with a byte of the key&lt;/li&gt;&lt;/ul&gt;&lt;/ul&gt;&lt;/div&gt;&lt;div style=&quot;line-height: 90%;&quot;&gt;&lt;i&gt;Decryption&lt;/i&gt;:&lt;/div&gt;&lt;div style=&quot;line-height: 90%;&quot;&gt;&lt;ul&gt;&lt;li&gt;same as encryption, just iterate backwards&lt;br&gt;&lt;/li&gt;&lt;/ul&gt;&lt;/div&gt;&lt;div&gt;&lt;br&gt;&lt;/div&gt;" style="rounded=1;whiteSpace=wrap;html=1;align=left;spacingLeft=4;spacingRight=4;arcSize=13;gradientColor=none;fillColor=#E8E8E8;verticalAlign=bottom;opacity=60;" vertex="1" parent="1">
          <mxGeometry x="90" y="-90" width="370" height="210" as="geometry" />
        </mxCell>
        <mxCell id="mjI52c1CxNeufO2wocmV-182" value="&lt;font style=&quot;font-size: 16px;&quot;&gt;&lt;b&gt;&lt;font&gt;XOR-Encryption&lt;/font&gt;&lt;/b&gt;&lt;/font&gt;" style="text;html=1;align=center;verticalAlign=middle;whiteSpace=wrap;rounded=0;" vertex="1" parent="1">
          <mxGeometry x="147.5" y="-130" width="230" height="30" as="geometry" />
        </mxCell>
        <mxCell id="mjI52c1CxNeufO2wocmV-183" value="" style="group;fillColor=none;rounded=1;glass=0;" vertex="1" connectable="0" parent="1">
          <mxGeometry x="490" y="-90" width="420" height="410" as="geometry" />
        </mxCell>
        <mxCell id="mjI52c1CxNeufO2wocmV-98" value="" style="rounded=1;whiteSpace=wrap;html=1;fillColor=#e8e8e8;strokeColor=default;opacity=60;arcSize=7;" vertex="1" parent="mjI52c1CxNeufO2wocmV-183">
          <mxGeometry width="420" height="410" as="geometry" />
        </mxCell>
        <mxCell id="mjI52c1CxNeufO2wocmV-4" value="" style="group" vertex="1" connectable="0" parent="mjI52c1CxNeufO2wocmV-183">
          <mxGeometry x="90" y="50" width="90" height="30" as="geometry" />
        </mxCell>
        <mxCell id="mjI52c1CxNeufO2wocmV-1" value="K" style="text;html=1;align=center;verticalAlign=middle;whiteSpace=wrap;rounded=0;" vertex="1" parent="mjI52c1CxNeufO2wocmV-4">
          <mxGeometry width="30" height="30" as="geometry" />
        </mxCell>
        <mxCell id="mjI52c1CxNeufO2wocmV-2" value="E" style="text;html=1;align=center;verticalAlign=middle;whiteSpace=wrap;rounded=0;" vertex="1" parent="mjI52c1CxNeufO2wocmV-4">
          <mxGeometry x="30" width="30" height="30" as="geometry" />
        </mxCell>
        <mxCell id="mjI52c1CxNeufO2wocmV-3" value="Y" style="text;html=1;align=center;verticalAlign=middle;whiteSpace=wrap;rounded=0;" vertex="1" parent="mjI52c1CxNeufO2wocmV-4">
          <mxGeometry x="60" width="30" height="30" as="geometry" />
        </mxCell>
        <mxCell id="mjI52c1CxNeufO2wocmV-19" value="Key:" style="text;html=1;align=center;verticalAlign=middle;whiteSpace=wrap;rounded=0;" vertex="1" parent="mjI52c1CxNeufO2wocmV-183">
          <mxGeometry x="20" y="50" width="60" height="30" as="geometry" />
        </mxCell>
        <mxCell id="mjI52c1CxNeufO2wocmV-20" value="Data:" style="text;html=1;align=center;verticalAlign=middle;whiteSpace=wrap;rounded=0;" vertex="1" parent="mjI52c1CxNeufO2wocmV-183">
          <mxGeometry x="20" y="90" width="60" height="30" as="geometry" />
        </mxCell>
        <mxCell id="mjI52c1CxNeufO2wocmV-35" value="" style="endArrow=none;html=1;strokeWidth=2;rounded=0;entryX=0;entryY=0;entryDx=0;entryDy=0;strokeColor=#707070;dashed=1;" edge="1" parent="mjI52c1CxNeufO2wocmV-183">
          <mxGeometry width="50" height="50" relative="1" as="geometry">
            <mxPoint x="240" y="385" as="sourcePoint" />
            <mxPoint x="240" y="85" as="targetPoint" />
          </mxGeometry>
        </mxCell>
        <mxCell id="mjI52c1CxNeufO2wocmV-36" value="" style="shape=curlyBracket;whiteSpace=wrap;html=1;rounded=1;flipH=1;labelPosition=right;verticalLabelPosition=middle;align=left;verticalAlign=middle;" vertex="1" parent="mjI52c1CxNeufO2wocmV-183">
          <mxGeometry x="334" y="110" width="20" height="40" as="geometry" />
        </mxCell>
        <mxCell id="mjI52c1CxNeufO2wocmV-37" value="XOR" style="text;html=1;align=center;verticalAlign=middle;whiteSpace=wrap;rounded=0;" vertex="1" parent="mjI52c1CxNeufO2wocmV-183">
          <mxGeometry x="354" y="115" width="44" height="30" as="geometry" />
        </mxCell>
        <mxCell id="mjI52c1CxNeufO2wocmV-63" value="XOR" style="text;html=1;align=center;verticalAlign=middle;whiteSpace=wrap;rounded=0;" vertex="1" parent="mjI52c1CxNeufO2wocmV-183">
          <mxGeometry x="354" y="201" width="44" height="30" as="geometry" />
        </mxCell>
        <mxCell id="mjI52c1CxNeufO2wocmV-64" value="" style="shape=curlyBracket;whiteSpace=wrap;html=1;rounded=1;flipH=1;labelPosition=right;verticalLabelPosition=middle;align=left;verticalAlign=middle;" vertex="1" parent="mjI52c1CxNeufO2wocmV-183">
          <mxGeometry x="334" y="196" width="20" height="40" as="geometry" />
        </mxCell>
        <mxCell id="mjI52c1CxNeufO2wocmV-77" value="XOR" style="text;html=1;align=center;verticalAlign=middle;whiteSpace=wrap;rounded=0;" vertex="1" parent="mjI52c1CxNeufO2wocmV-183">
          <mxGeometry x="354" y="282" width="44" height="30" as="geometry" />
        </mxCell>
        <mxCell id="mjI52c1CxNeufO2wocmV-78" value="" style="shape=curlyBracket;whiteSpace=wrap;html=1;rounded=1;flipH=1;labelPosition=right;verticalLabelPosition=middle;align=left;verticalAlign=middle;" vertex="1" parent="mjI52c1CxNeufO2wocmV-183">
          <mxGeometry x="334" y="277" width="20" height="40" as="geometry" />
        </mxCell>
        <mxCell id="mjI52c1CxNeufO2wocmV-88" value="Key:" style="text;html=1;align=center;verticalAlign=middle;whiteSpace=wrap;rounded=0;" vertex="1" parent="mjI52c1CxNeufO2wocmV-183">
          <mxGeometry x="20" y="135" width="60" height="30" as="geometry" />
        </mxCell>
        <mxCell id="mjI52c1CxNeufO2wocmV-89" value="Data:" style="text;html=1;align=center;verticalAlign=middle;whiteSpace=wrap;rounded=0;" vertex="1" parent="mjI52c1CxNeufO2wocmV-183">
          <mxGeometry x="20" y="180" width="60" height="30" as="geometry" />
        </mxCell>
        <mxCell id="mjI52c1CxNeufO2wocmV-90" value="Data:" style="text;html=1;align=center;verticalAlign=middle;whiteSpace=wrap;rounded=0;" vertex="1" parent="mjI52c1CxNeufO2wocmV-183">
          <mxGeometry x="20" y="260" width="60" height="30" as="geometry" />
        </mxCell>
        <mxCell id="mjI52c1CxNeufO2wocmV-91" value="Key:" style="text;html=1;align=center;verticalAlign=middle;whiteSpace=wrap;rounded=0;" vertex="1" parent="mjI52c1CxNeufO2wocmV-183">
          <mxGeometry x="20" y="220" width="60" height="30" as="geometry" />
        </mxCell>
        <mxCell id="mjI52c1CxNeufO2wocmV-92" value="Key:" style="text;html=1;align=center;verticalAlign=middle;whiteSpace=wrap;rounded=0;" vertex="1" parent="mjI52c1CxNeufO2wocmV-183">
          <mxGeometry x="20" y="300" width="60" height="30" as="geometry" />
        </mxCell>
        <mxCell id="mjI52c1CxNeufO2wocmV-93" value="Encrypted:" style="text;html=1;align=center;verticalAlign=middle;whiteSpace=wrap;rounded=0;" vertex="1" parent="mjI52c1CxNeufO2wocmV-183">
          <mxGeometry x="20" y="340" width="60" height="30" as="geometry" />
        </mxCell>
        <mxCell id="mjI52c1CxNeufO2wocmV-106" value="T" style="text;html=1;align=center;verticalAlign=middle;whiteSpace=wrap;rounded=0;" vertex="1" parent="mjI52c1CxNeufO2wocmV-183">
          <mxGeometry x="270" y="90" width="30" height="30" as="geometry" />
        </mxCell>
        <mxCell id="mjI52c1CxNeufO2wocmV-107" value="A" style="text;html=1;align=center;verticalAlign=middle;whiteSpace=wrap;rounded=0;" vertex="1" parent="mjI52c1CxNeufO2wocmV-183">
          <mxGeometry x="300" y="90" width="30" height="30" as="geometry" />
        </mxCell>
        <mxCell id="mjI52c1CxNeufO2wocmV-108" value="" style="endArrow=none;html=1;strokeWidth=1;rounded=0;strokeColor=#707070;curved=0;dashed=1;dashPattern=1 4;" edge="1" parent="mjI52c1CxNeufO2wocmV-183">
          <mxGeometry width="50" height="50" relative="1" as="geometry">
            <mxPoint x="30" y="339" as="sourcePoint" />
            <mxPoint x="330" y="340" as="targetPoint" />
          </mxGeometry>
        </mxCell>
        <mxCell id="mjI52c1CxNeufO2wocmV-26" value="K" style="text;html=1;align=center;verticalAlign=middle;whiteSpace=wrap;rounded=0;fontColor=#FFAF24;" vertex="1" parent="mjI52c1CxNeufO2wocmV-183">
          <mxGeometry x="180" y="135" width="30" height="30" as="geometry" />
        </mxCell>
        <mxCell id="mjI52c1CxNeufO2wocmV-27" value="E" style="text;html=1;align=center;verticalAlign=middle;whiteSpace=wrap;rounded=0;fontColor=#FFAF24;" vertex="1" parent="mjI52c1CxNeufO2wocmV-183">
          <mxGeometry x="210" y="135" width="30" height="30" as="geometry" />
        </mxCell>
        <mxCell id="mjI52c1CxNeufO2wocmV-28" value="Y" style="text;html=1;align=center;verticalAlign=middle;whiteSpace=wrap;rounded=0;fontColor=#FFAF24;" vertex="1" parent="mjI52c1CxNeufO2wocmV-183">
          <mxGeometry x="240" y="135" width="30" height="30" as="geometry" />
        </mxCell>
        <mxCell id="mjI52c1CxNeufO2wocmV-22" value="K" style="text;html=1;align=center;verticalAlign=middle;whiteSpace=wrap;rounded=0;fontColor=#FFAF24;" vertex="1" parent="mjI52c1CxNeufO2wocmV-183">
          <mxGeometry x="90" y="135" width="30" height="30" as="geometry" />
        </mxCell>
        <mxCell id="mjI52c1CxNeufO2wocmV-23" value="E" style="text;html=1;align=center;verticalAlign=middle;whiteSpace=wrap;rounded=0;fontColor=#FFAF24;" vertex="1" parent="mjI52c1CxNeufO2wocmV-183">
          <mxGeometry x="120" y="135" width="30" height="30" as="geometry" />
        </mxCell>
        <mxCell id="mjI52c1CxNeufO2wocmV-24" value="Y" style="text;html=1;align=center;verticalAlign=middle;whiteSpace=wrap;rounded=0;fontColor=#FFAF24;" vertex="1" parent="mjI52c1CxNeufO2wocmV-183">
          <mxGeometry x="150" y="135" width="30" height="30" as="geometry" />
        </mxCell>
        <mxCell id="mjI52c1CxNeufO2wocmV-120" value="K" style="text;html=1;align=center;verticalAlign=middle;whiteSpace=wrap;rounded=0;fontColor=#FFAF24;" vertex="1" parent="mjI52c1CxNeufO2wocmV-183">
          <mxGeometry x="270" y="135" width="30" height="30" as="geometry" />
        </mxCell>
        <mxCell id="mjI52c1CxNeufO2wocmV-121" value="E" style="text;html=1;align=center;verticalAlign=middle;whiteSpace=wrap;rounded=0;fontColor=#FFAF24;" vertex="1" parent="mjI52c1CxNeufO2wocmV-183">
          <mxGeometry x="300" y="135" width="30" height="30" as="geometry" />
        </mxCell>
        <mxCell id="mjI52c1CxNeufO2wocmV-6" value="T" style="text;html=1;align=center;verticalAlign=middle;whiteSpace=wrap;rounded=0;" vertex="1" parent="mjI52c1CxNeufO2wocmV-183">
          <mxGeometry x="90" y="90" width="30" height="30" as="geometry" />
        </mxCell>
        <mxCell id="mjI52c1CxNeufO2wocmV-7" value="E" style="text;html=1;align=center;verticalAlign=middle;whiteSpace=wrap;rounded=0;" vertex="1" parent="mjI52c1CxNeufO2wocmV-183">
          <mxGeometry x="120" y="90" width="30" height="30" as="geometry" />
        </mxCell>
        <mxCell id="mjI52c1CxNeufO2wocmV-8" value="S" style="text;html=1;align=center;verticalAlign=middle;whiteSpace=wrap;rounded=0;" vertex="1" parent="mjI52c1CxNeufO2wocmV-183">
          <mxGeometry x="150" y="90" width="30" height="30" as="geometry" />
        </mxCell>
        <mxCell id="mjI52c1CxNeufO2wocmV-15" value="T" style="text;html=1;align=center;verticalAlign=middle;whiteSpace=wrap;rounded=0;" vertex="1" parent="mjI52c1CxNeufO2wocmV-183">
          <mxGeometry x="180" y="90" width="30" height="30" as="geometry" />
        </mxCell>
        <mxCell id="mjI52c1CxNeufO2wocmV-16" value="D" style="text;html=1;align=center;verticalAlign=middle;whiteSpace=wrap;rounded=0;" vertex="1" parent="mjI52c1CxNeufO2wocmV-183">
          <mxGeometry x="210" y="90" width="30" height="30" as="geometry" />
        </mxCell>
        <mxCell id="mjI52c1CxNeufO2wocmV-17" value="A" style="text;html=1;align=center;verticalAlign=middle;whiteSpace=wrap;rounded=0;" vertex="1" parent="mjI52c1CxNeufO2wocmV-183">
          <mxGeometry x="240" y="90" width="30" height="30" as="geometry" />
        </mxCell>
        <mxCell id="mjI52c1CxNeufO2wocmV-124" value="\x1f" style="text;html=1;align=center;verticalAlign=middle;whiteSpace=wrap;rounded=0;" vertex="1" parent="mjI52c1CxNeufO2wocmV-183">
          <mxGeometry x="270" y="180" width="30" height="30" as="geometry" />
        </mxCell>
        <mxCell id="mjI52c1CxNeufO2wocmV-125" value="\x04" style="text;html=1;align=center;verticalAlign=middle;whiteSpace=wrap;rounded=0;" vertex="1" parent="mjI52c1CxNeufO2wocmV-183">
          <mxGeometry x="300" y="180" width="30" height="30" as="geometry" />
        </mxCell>
        <mxCell id="mjI52c1CxNeufO2wocmV-126" value="\x1f" style="text;html=1;align=center;verticalAlign=middle;whiteSpace=wrap;rounded=0;" vertex="1" parent="mjI52c1CxNeufO2wocmV-183">
          <mxGeometry x="90" y="180" width="30" height="30" as="geometry" />
        </mxCell>
        <mxCell id="mjI52c1CxNeufO2wocmV-127" value="\x00" style="text;html=1;align=center;verticalAlign=middle;whiteSpace=wrap;rounded=0;" vertex="1" parent="mjI52c1CxNeufO2wocmV-183">
          <mxGeometry x="120" y="180" width="30" height="30" as="geometry" />
        </mxCell>
        <mxCell id="mjI52c1CxNeufO2wocmV-128" value="\n" style="text;html=1;align=center;verticalAlign=middle;whiteSpace=wrap;rounded=0;" vertex="1" parent="mjI52c1CxNeufO2wocmV-183">
          <mxGeometry x="150" y="180" width="30" height="30" as="geometry" />
        </mxCell>
        <mxCell id="mjI52c1CxNeufO2wocmV-129" value="\x1f" style="text;html=1;align=center;verticalAlign=middle;whiteSpace=wrap;rounded=0;" vertex="1" parent="mjI52c1CxNeufO2wocmV-183">
          <mxGeometry x="180" y="180" width="30" height="30" as="geometry" />
        </mxCell>
        <mxCell id="mjI52c1CxNeufO2wocmV-130" value="\x01" style="text;html=1;align=center;verticalAlign=middle;whiteSpace=wrap;rounded=0;" vertex="1" parent="mjI52c1CxNeufO2wocmV-183">
          <mxGeometry x="210" y="180" width="30" height="30" as="geometry" />
        </mxCell>
        <mxCell id="mjI52c1CxNeufO2wocmV-131" value="\x18" style="text;html=1;align=center;verticalAlign=middle;whiteSpace=wrap;rounded=0;" vertex="1" parent="mjI52c1CxNeufO2wocmV-183">
          <mxGeometry x="240" y="180" width="30" height="30" as="geometry" />
        </mxCell>
        <mxCell id="mjI52c1CxNeufO2wocmV-132" value="\x1f" style="text;html=1;align=center;verticalAlign=middle;whiteSpace=wrap;rounded=0;" vertex="1" parent="mjI52c1CxNeufO2wocmV-183">
          <mxGeometry x="270" y="260" width="30" height="30" as="geometry" />
        </mxCell>
        <mxCell id="mjI52c1CxNeufO2wocmV-133" value="O" style="text;html=1;align=center;verticalAlign=middle;whiteSpace=wrap;rounded=0;" vertex="1" parent="mjI52c1CxNeufO2wocmV-183">
          <mxGeometry x="300" y="260" width="30" height="30" as="geometry" />
        </mxCell>
        <mxCell id="mjI52c1CxNeufO2wocmV-134" value="\x1f" style="text;html=1;align=center;verticalAlign=middle;whiteSpace=wrap;rounded=0;" vertex="1" parent="mjI52c1CxNeufO2wocmV-183">
          <mxGeometry x="90" y="260" width="30" height="30" as="geometry" />
        </mxCell>
        <mxCell id="mjI52c1CxNeufO2wocmV-135" value="K" style="text;html=1;align=center;verticalAlign=middle;whiteSpace=wrap;rounded=0;" vertex="1" parent="mjI52c1CxNeufO2wocmV-183">
          <mxGeometry x="120" y="260" width="30" height="30" as="geometry" />
        </mxCell>
        <mxCell id="mjI52c1CxNeufO2wocmV-136" value="\n" style="text;html=1;align=center;verticalAlign=middle;whiteSpace=wrap;rounded=0;" vertex="1" parent="mjI52c1CxNeufO2wocmV-183">
          <mxGeometry x="150" y="260" width="30" height="30" as="geometry" />
        </mxCell>
        <mxCell id="mjI52c1CxNeufO2wocmV-137" value="Z" style="text;html=1;align=center;verticalAlign=middle;whiteSpace=wrap;rounded=0;" vertex="1" parent="mjI52c1CxNeufO2wocmV-183">
          <mxGeometry x="180" y="260" width="30" height="30" as="geometry" />
        </mxCell>
        <mxCell id="mjI52c1CxNeufO2wocmV-138" value="\x01" style="text;html=1;align=center;verticalAlign=middle;whiteSpace=wrap;rounded=0;" vertex="1" parent="mjI52c1CxNeufO2wocmV-183">
          <mxGeometry x="210" y="260" width="30" height="30" as="geometry" />
        </mxCell>
        <mxCell id="mjI52c1CxNeufO2wocmV-139" value="A" style="text;html=1;align=center;verticalAlign=middle;whiteSpace=wrap;rounded=0;" vertex="1" parent="mjI52c1CxNeufO2wocmV-183">
          <mxGeometry x="240" y="260" width="30" height="30" as="geometry" />
        </mxCell>
        <mxCell id="mjI52c1CxNeufO2wocmV-140" value="\x1f" style="text;html=1;align=center;verticalAlign=middle;whiteSpace=wrap;rounded=0;" vertex="1" parent="mjI52c1CxNeufO2wocmV-183">
          <mxGeometry x="270" y="340" width="30" height="30" as="geometry" />
        </mxCell>
        <mxCell id="mjI52c1CxNeufO2wocmV-141" value="A" style="text;html=1;align=center;verticalAlign=middle;whiteSpace=wrap;rounded=0;" vertex="1" parent="mjI52c1CxNeufO2wocmV-183">
          <mxGeometry x="300" y="340" width="30" height="30" as="geometry" />
        </mxCell>
        <mxCell id="mjI52c1CxNeufO2wocmV-142" value="\x1f" style="text;html=1;align=center;verticalAlign=middle;whiteSpace=wrap;rounded=0;" vertex="1" parent="mjI52c1CxNeufO2wocmV-183">
          <mxGeometry x="90" y="340" width="30" height="30" as="geometry" />
        </mxCell>
        <mxCell id="mjI52c1CxNeufO2wocmV-143" value="K" style="text;html=1;align=center;verticalAlign=middle;whiteSpace=wrap;rounded=0;" vertex="1" parent="mjI52c1CxNeufO2wocmV-183">
          <mxGeometry x="120" y="340" width="30" height="30" as="geometry" />
        </mxCell>
        <mxCell id="mjI52c1CxNeufO2wocmV-144" value="A" style="text;html=1;align=center;verticalAlign=middle;whiteSpace=wrap;rounded=0;" vertex="1" parent="mjI52c1CxNeufO2wocmV-183">
          <mxGeometry x="150" y="340" width="30" height="30" as="geometry" />
        </mxCell>
        <mxCell id="mjI52c1CxNeufO2wocmV-145" value="Z" style="text;html=1;align=center;verticalAlign=middle;whiteSpace=wrap;rounded=0;" vertex="1" parent="mjI52c1CxNeufO2wocmV-183">
          <mxGeometry x="180" y="340" width="30" height="30" as="geometry" />
        </mxCell>
        <mxCell id="mjI52c1CxNeufO2wocmV-146" value="\x01" style="text;html=1;align=center;verticalAlign=middle;whiteSpace=wrap;rounded=0;" vertex="1" parent="mjI52c1CxNeufO2wocmV-183">
          <mxGeometry x="210" y="340" width="30" height="30" as="geometry" />
        </mxCell>
        <mxCell id="mjI52c1CxNeufO2wocmV-147" value="\x04" style="text;html=1;align=center;verticalAlign=middle;whiteSpace=wrap;rounded=0;" vertex="1" parent="mjI52c1CxNeufO2wocmV-183">
          <mxGeometry x="240" y="340" width="30" height="30" as="geometry" />
        </mxCell>
        <mxCell id="mjI52c1CxNeufO2wocmV-148" value="E" style="text;html=1;align=center;verticalAlign=middle;whiteSpace=wrap;rounded=0;fontColor=#FFAF24;" vertex="1" parent="mjI52c1CxNeufO2wocmV-183">
          <mxGeometry x="180" y="220" width="30" height="30" as="geometry" />
        </mxCell>
        <mxCell id="mjI52c1CxNeufO2wocmV-150" value="Y" style="text;html=1;align=center;verticalAlign=middle;whiteSpace=wrap;rounded=0;fontColor=#FFAF24;" vertex="1" parent="mjI52c1CxNeufO2wocmV-183">
          <mxGeometry x="240" y="220" width="30" height="30" as="geometry" />
        </mxCell>
        <mxCell id="mjI52c1CxNeufO2wocmV-152" value="K" style="text;html=1;align=center;verticalAlign=middle;whiteSpace=wrap;rounded=0;fontColor=#FFAF24;" vertex="1" parent="mjI52c1CxNeufO2wocmV-183">
          <mxGeometry x="120" y="220" width="30" height="30" as="geometry" />
        </mxCell>
        <mxCell id="mjI52c1CxNeufO2wocmV-154" value="K" style="text;html=1;align=center;verticalAlign=middle;whiteSpace=wrap;rounded=0;fontColor=#FFAF24;" vertex="1" parent="mjI52c1CxNeufO2wocmV-183">
          <mxGeometry x="300" y="220" width="30" height="30" as="geometry" />
        </mxCell>
        <mxCell id="mjI52c1CxNeufO2wocmV-158" value="E" style="text;html=1;align=center;verticalAlign=middle;whiteSpace=wrap;rounded=0;fontColor=#FFAF24;" vertex="1" parent="mjI52c1CxNeufO2wocmV-183">
          <mxGeometry x="240" y="300" width="30" height="30" as="geometry" />
        </mxCell>
        <mxCell id="mjI52c1CxNeufO2wocmV-161" value="K" style="text;html=1;align=center;verticalAlign=middle;whiteSpace=wrap;rounded=0;fontColor=#FFAF24;" vertex="1" parent="mjI52c1CxNeufO2wocmV-183">
          <mxGeometry x="150" y="300" width="30" height="30" as="geometry" />
        </mxCell>
        <mxCell id="mjI52c1CxNeufO2wocmV-165" value="" style="endArrow=none;html=1;strokeWidth=2;rounded=0;entryX=0;entryY=0;entryDx=0;entryDy=0;strokeColor=#707070;dashed=1;" edge="1" parent="mjI52c1CxNeufO2wocmV-183">
          <mxGeometry width="50" height="50" relative="1" as="geometry">
            <mxPoint x="269" y="385" as="sourcePoint" />
            <mxPoint x="269" y="85" as="targetPoint" />
          </mxGeometry>
        </mxCell>
        <mxCell id="mjI52c1CxNeufO2wocmV-166" value="" style="endArrow=none;html=1;strokeWidth=2;rounded=0;entryX=0;entryY=0;entryDx=0;entryDy=0;strokeColor=#707070;dashed=1;" edge="1" parent="mjI52c1CxNeufO2wocmV-183">
          <mxGeometry width="50" height="50" relative="1" as="geometry">
            <mxPoint x="299" y="385" as="sourcePoint" />
            <mxPoint x="299" y="85" as="targetPoint" />
          </mxGeometry>
        </mxCell>
        <mxCell id="mjI52c1CxNeufO2wocmV-167" value="" style="endArrow=none;html=1;strokeWidth=2;rounded=0;entryX=0;entryY=0;entryDx=0;entryDy=0;strokeColor=#707070;dashed=1;" edge="1" parent="mjI52c1CxNeufO2wocmV-183">
          <mxGeometry width="50" height="50" relative="1" as="geometry">
            <mxPoint x="209" y="385" as="sourcePoint" />
            <mxPoint x="209" y="85" as="targetPoint" />
          </mxGeometry>
        </mxCell>
        <mxCell id="mjI52c1CxNeufO2wocmV-168" value="" style="endArrow=none;html=1;strokeWidth=2;rounded=0;entryX=0;entryY=0;entryDx=0;entryDy=0;strokeColor=#707070;dashed=1;" edge="1" parent="mjI52c1CxNeufO2wocmV-183">
          <mxGeometry width="50" height="50" relative="1" as="geometry">
            <mxPoint x="179" y="385" as="sourcePoint" />
            <mxPoint x="179" y="85" as="targetPoint" />
          </mxGeometry>
        </mxCell>
        <mxCell id="mjI52c1CxNeufO2wocmV-169" value="" style="endArrow=none;html=1;strokeWidth=2;rounded=0;entryX=0;entryY=0;entryDx=0;entryDy=0;strokeColor=#707070;dashed=1;" edge="1" parent="mjI52c1CxNeufO2wocmV-183">
          <mxGeometry width="50" height="50" relative="1" as="geometry">
            <mxPoint x="150" y="385" as="sourcePoint" />
            <mxPoint x="150" y="85" as="targetPoint" />
          </mxGeometry>
        </mxCell>
        <mxCell id="mjI52c1CxNeufO2wocmV-170" value="" style="endArrow=none;html=1;strokeWidth=2;rounded=0;entryX=0;entryY=0;entryDx=0;entryDy=0;strokeColor=#707070;dashed=1;" edge="1" parent="mjI52c1CxNeufO2wocmV-183">
          <mxGeometry width="50" height="50" relative="1" as="geometry">
            <mxPoint x="120" y="385" as="sourcePoint" />
            <mxPoint x="120" y="85" as="targetPoint" />
          </mxGeometry>
        </mxCell>
        <mxCell id="mjI52c1CxNeufO2wocmV-173" value="" style="endArrow=none;html=1;strokeWidth=1;rounded=0;strokeColor=#707070;curved=0;dashed=1;dashPattern=1 4;" edge="1" parent="mjI52c1CxNeufO2wocmV-183">
          <mxGeometry width="50" height="50" relative="1" as="geometry">
            <mxPoint x="34" y="259" as="sourcePoint" />
            <mxPoint x="334" y="260" as="targetPoint" />
          </mxGeometry>
        </mxCell>
        <mxCell id="mjI52c1CxNeufO2wocmV-174" value="" style="endArrow=none;html=1;strokeWidth=1;rounded=0;strokeColor=#707070;curved=0;dashed=1;dashPattern=1 4;" edge="1" parent="mjI52c1CxNeufO2wocmV-183">
          <mxGeometry width="50" height="50" relative="1" as="geometry">
            <mxPoint x="30" y="179" as="sourcePoint" />
            <mxPoint x="330" y="180" as="targetPoint" />
          </mxGeometry>
        </mxCell>
        <mxCell id="mjI52c1CxNeufO2wocmV-176" value="i = 1" style="text;html=1;align=center;verticalAlign=middle;whiteSpace=wrap;rounded=0;fontSize=10;" vertex="1" parent="mjI52c1CxNeufO2wocmV-183">
          <mxGeometry x="35" y="115" width="30" height="30" as="geometry" />
        </mxCell>
        <mxCell id="mjI52c1CxNeufO2wocmV-177" value="i = 2" style="text;html=1;align=center;verticalAlign=middle;whiteSpace=wrap;rounded=0;fontSize=10;" vertex="1" parent="mjI52c1CxNeufO2wocmV-183">
          <mxGeometry x="35" y="201" width="30" height="30" as="geometry" />
        </mxCell>
        <mxCell id="mjI52c1CxNeufO2wocmV-178" value="i = 3" style="text;html=1;align=center;verticalAlign=middle;whiteSpace=wrap;rounded=0;fontSize=10;" vertex="1" parent="mjI52c1CxNeufO2wocmV-183">
          <mxGeometry x="35" y="282" width="30" height="30" as="geometry" />
        </mxCell>
        <mxCell id="mjI52c1CxNeufO2wocmV-180" value="&lt;font style=&quot;font-size: 16px;&quot;&gt;&lt;b&gt;Example&lt;/b&gt;&lt;/font&gt;" style="text;html=1;align=center;verticalAlign=middle;whiteSpace=wrap;rounded=0;" vertex="1" parent="mjI52c1CxNeufO2wocmV-183">
          <mxGeometry x="95" y="20" width="230" height="30" as="geometry" />
        </mxCell>
        <mxCell id="mjI52c1CxNeufO2wocmV-185" value="Algorithm" style="text;html=1;align=center;verticalAlign=middle;whiteSpace=wrap;rounded=0;fontStyle=1;fontSize=16;" vertex="1" parent="1">
          <mxGeometry x="180" y="-70" width="150" height="30" as="geometry" />
        </mxCell>
        <mxCell id="mjI52c1CxNeufO2wocmV-187" value="&lt;div&gt;&lt;br&gt;&lt;ul&gt;&lt;li&gt;has a length of 8 bytes&lt;/li&gt;&lt;li&gt;is generated randomly&lt;/li&gt;&lt;li&gt;changes on each propagation&lt;/li&gt;&lt;/ul&gt;&lt;/div&gt;" style="rounded=1;whiteSpace=wrap;html=1;align=left;spacingLeft=4;spacingRight=4;arcSize=13;gradientColor=none;fillColor=#E8E8E8;verticalAlign=middle;opacity=60;" vertex="1" parent="1">
          <mxGeometry x="90" y="140" width="280" height="130" as="geometry" />
        </mxCell>
        <mxCell id="mjI52c1CxNeufO2wocmV-188" value="&lt;b&gt;&lt;font style=&quot;font-size: 16px;&quot;&gt;The &lt;/font&gt;&lt;/b&gt;&lt;font style=&quot;font-size: 16px;&quot;&gt;&lt;b&gt;Key&lt;/b&gt;&lt;/font&gt;" style="text;html=1;align=center;verticalAlign=middle;whiteSpace=wrap;rounded=0;" vertex="1" parent="1">
          <mxGeometry x="157.5" y="150" width="145" height="30" as="geometry" />
        </mxCell>
      </root>
    </mxGraphModel>
  </diagram>
</mxfile>
